<?xml version="1.0" encoding="UTF-8" standalone="no"?>
<svg
   xmlns:dc="http://purl.org/dc/elements/1.1/"
   xmlns:cc="http://creativecommons.org/ns#"
   xmlns:rdf="http://www.w3.org/1999/02/22-rdf-syntax-ns#"
   xmlns:svg="http://www.w3.org/2000/svg"
   xmlns="http://www.w3.org/2000/svg"
   xmlns:sodipodi="http://sodipodi.sourceforge.net/DTD/sodipodi-0.dtd"
   xmlns:inkscape="http://www.inkscape.org/namespaces/inkscape"
   width="100%"
   height="100%"
   viewBox="0 0 76 76"
   version="1.1"
   xml:space="preserve"
   style="fill-rule:evenodd;clip-rule:evenodd;stroke-linejoin:round;stroke-miterlimit:1.41421;"
   id="svg2"
   inkscape:version="0.91 r13725"
   sodipodi:docname="samm-logo-small.svg"><metadata
     id="metadata30"><rdf:RDF><cc:Work
         rdf:about=""><dc:format>image/svg+xml</dc:format><dc:type
           rdf:resource="http://purl.org/dc/dcmitype/StillImage" /><dc:title></dc:title></cc:Work></rdf:RDF></metadata><defs
     id="defs28"><pattern
       patternUnits="userSpaceOnUse"
       width="67.36667"
       height="73.406556"
       patternTransform="translate(3.3505625,1.1357048)"
       id="pattern3379"><g
         id="g3372"
         transform="translate(-3.3505625,-1.1357048)"><path
           inkscape:connector-curvature="0"
           d="m 56.029746,3.8704197 c 0,-1.4989007 -1.123362,-2.7347149 -2.492854,-2.7347149 l -12.539999,0 c -1.366337,0 -2.492855,1.2358142 -2.492855,2.7347149 l 0,7.0064103 17.525708,0 0,-7.0064103 z"
           style="clip-rule:evenodd;fill:#000000;fill-rule:nonzero;stroke-linejoin:round;stroke-miterlimit:1.41420996"
           id="path4" /><path
           inkscape:connector-curvature="0"
           d="m 59.324099,14.992748 c 0,-1.502363 -1.126518,-2.734715 -2.492854,-2.734715 l -19.128706,0 c -1.366336,0 -2.492854,1.232352 -2.492854,2.734715 l 0,4.16092 24.114414,0 0,-4.16092 z"
           style="clip-rule:evenodd;fill:#000000;fill-rule:nonzero;stroke-linejoin:round;stroke-miterlimit:1.41420996"
           id="path6" /><path
           inkscape:connector-curvature="0"
           d="m 35.209685,41.40871 c 0,1.4989 1.126518,2.731252 2.492854,2.731252 l 19.11924,0 c 1.366337,0 2.489697,-1.232352 2.489697,-2.731252 l 0,-4.250924 -24.101791,0 0,4.250924 z"
           style="clip-rule:evenodd;fill:#000000;fill-rule:nonzero;stroke-linejoin:round;stroke-miterlimit:1.41420996"
           id="path8" /><path
           inkscape:connector-curvature="0"
           d="m 35.209685,20.289095 0,15.747111 24.114414,0 0,-15.747111 -24.114414,0 z m 16.203549,9.156102 -3.026135,0 0,3.319736 c 0,0.706179 -0.530126,1.287739 -1.17385,1.287739 -0.643725,0 -1.173849,-0.58156 -1.173849,-1.287739 l 0,-3.319736 -2.972492,0 c -0.643724,0 -1.17385,-0.58156 -1.17385,-1.28774 0,-0.706179 0.530126,-1.287737 1.17385,-1.287737 l 3.026135,0 0,-3.319737 c 0,-0.706181 0.530124,-1.28774 1.173849,-1.28774 0.643725,0 1.173851,0.581559 1.173851,1.28774 l 0,3.319737 2.972491,0 c 0.643724,0 1.17385,0.581558 1.17385,1.287737 0,0.70618 -0.530126,1.28774 -1.17385,1.28774 l 0,0 z"
           style="clip-rule:evenodd;fill:#000000;fill-rule:nonzero;stroke-linejoin:round;stroke-miterlimit:1.41420996"
           id="path10" /><path
           inkscape:connector-curvature="0"
           d="m 69.858382,47.500874 c -1.622065,-1.233187 -3.67689,0.07273 -5.158855,0.968696 -2.126426,1.537351 -4.081623,3.32266 -5.828223,5.329481 -3.589717,3.005273 -8.421668,2.949069 -12.658966,4.185561 -3.673778,0.925717 -7.549924,-0.115714 -10.364411,-2.787067 3.206772,-1.137309 6.631479,-1.4018 9.956559,-0.770328 2.615232,0.185143 5.632088,-1.167064 6.587892,-3.871479 C 53.074207,48.224916 50.810787,46.06932 48.768415,46.056094 43.357377,45.36842 37.725289,46.499117 32.466806,44.518744 26.800471,42.792944 20.598637,40.799348 14.835787,43.130169 7.5349331,46.988424 2.9987516,53.190724 3.5498183,53.878399 L 3.3505625,74.43261 c 1.0990199,0.978614 5.9838993,-4.883154 7.1482995,-6.073361 3.788972,-4.202092 9.751077,-5.309645 14.654636,-2.717639 5.118381,1.762167 12.945396,3.580539 14.95352,2.962293 5.927857,-2.01674 14.536328,-2.201884 18.720699,-5.653483 4.18125,-3.4516 15.093615,-11.343333 10.977738,-15.459464 l 0.05293,0.0099 z"
           style="clip-rule:evenodd;fill:#000000;fill-rule:nonzero;stroke-linejoin:round;stroke-miterlimit:1.41420996"
           id="path20" /></g></pattern></defs><sodipodi:namedview
     pagecolor="#ffffff"
     bordercolor="#666666"
     borderopacity="1"
     objecttolerance="10"
     gridtolerance="10"
     guidetolerance="10"
     inkscape:pageopacity="0"
     inkscape:pageshadow="2"
     inkscape:window-width="1366"
     inkscape:window-height="715"
     id="namedview26"
     showgrid="false"
     inkscape:zoom="3.1052632"
     inkscape:cx="-14.652542"
     inkscape:cy="38"
     inkscape:window-x="-8"
     inkscape:window-y="-8"
     inkscape:window-maximized="1"
     inkscape:current-layer="svg2" /><path
     inkscape:connector-curvature="0"
     d="m 57.075921,4.9669348 c 0,-1.393873 -1.177238,-2.543094 -2.61241,-2.543094 l -13.141414,0 c -1.431866,0 -2.61241,1.149221 -2.61241,2.543094 l 0,6.5154712 18.366234,0 0,-6.5154712 z"
     style="clip-rule:evenodd;fill-rule:nonzero;stroke-linejoin:round;stroke-miterlimit:1.41420996"
     id="path4-4" /><path
     inkscape:connector-curvature="0"
     d="m 60.528271,15.309923 c 0,-1.397092 -1.180545,-2.543094 -2.61241,-2.543094 l -20.046114,0 c -1.431865,0 -2.61241,1.146002 -2.61241,2.543094 l 0,3.869366 25.270934,0 0,-3.869366 z"
     style="clip-rule:evenodd;fill-rule:nonzero;stroke-linejoin:round;stroke-miterlimit:1.41420996"
     id="path6-1" /><path
     inkscape:connector-curvature="0"
     d="m 35.257337,39.874924 c 0,1.393873 1.180545,2.539875 2.61241,2.539875 l 20.036193,0 c 1.431865,0 2.609103,-1.146002 2.609103,-2.539875 l 0,-3.953062 -25.257706,0 0,3.953062 z"
     style="clip-rule:evenodd;fill-rule:nonzero;stroke-linejoin:round;stroke-miterlimit:1.41420996"
     id="path8-2" /><path
     inkscape:connector-curvature="0"
     d="m 35.257337,20.235156 0,14.643715 25.270934,0 0,-14.643715 -25.270934,0 z m 16.980665,8.514537 -3.171267,0 0,3.087123 c 0,0.656698 -0.55555,1.197507 -1.230147,1.197507 -0.674598,0 -1.230148,-0.540809 -1.230148,-1.197507 l 0,-3.087123 -3.115051,0 c -0.674597,0 -1.230148,-0.54081 -1.230148,-1.197508 0,-0.656697 0.555551,-1.197508 1.230148,-1.197508 l 3.171267,0 0,-3.087123 c 0,-0.656697 0.555551,-1.197507 1.230148,-1.197507 0.674597,0 1.230147,0.54081 1.230147,1.197507 l 0,3.087123 3.115051,0 c 0.674597,0 1.230148,0.540811 1.230148,1.197508 0,0.656698 -0.555551,1.197508 -1.230148,1.197508 l 0,0 z"
     style="clip-rule:evenodd;fill-rule:nonzero;stroke-linejoin:round;stroke-miterlimit:1.41420996"
     id="path10-7" /><path
     inkscape:connector-curvature="0"
     d="m 72.05925,47.568589 c -1.722868,-1.200727 -3.905387,0.07082 -5.479447,0.943198 -2.258577,1.496884 -4.335278,3.235202 -6.19042,5.189199 -3.812796,2.926168 -8.945024,2.871443 -13.445644,4.075389 -3.902081,0.901349 -8.019107,-0.112669 -11.008498,-2.713707 3.406054,-1.107373 7.043587,-1.364901 10.5753,-0.750052 2.777753,0.18027 5.982089,-1.136344 6.997291,-3.769573 0.7242,-2.26947 -1.679879,-4.368328 -3.849171,-4.381204 C 43.911359,45.492265 37.92927,46.593199 32.344004,44.664955 26.32554,42.984581 19.738299,41.04346 13.617323,43.31293 5.8627637,47.069627 1.0446859,53.10867 1.629998,53.778245 L 1.4183598,73.791429 c 1.1673174,0.952855 6.3557621,-4.75462 7.5925234,-5.913499 4.0244338,-4.091484 10.3570488,-5.169884 15.5653338,-2.646105 5.436459,1.715784 13.749875,3.486292 15.882792,2.884319 6.296239,-1.963655 15.439674,-2.143925 19.884078,-5.504672 4.441097,-3.360747 16.0316,-11.044753 11.659947,-15.052541 l 0.05622,0.0097 z"
     style="clip-rule:evenodd;fill-rule:nonzero;stroke-linejoin:round;stroke-miterlimit:1.41420996"
     id="path20-8" /></svg>