<?xml version="1.0" encoding="UTF-8" standalone="no"?><!DOCTYPE svg PUBLIC "-//W3C//DTD SVG 1.1//EN" "http://www.w3.org/Graphics/SVG/1.1/DTD/svg11.dtd"><svg width="100%" height="100%" viewBox="0 0 124 24" version="1.1" xmlns="http://www.w3.org/2000/svg" xmlns:xlink="http://www.w3.org/1999/xlink" xml:space="preserve" style="fill-rule:evenodd;clip-rule:evenodd;stroke-linejoin:round;stroke-miterlimit:1.41421;"><path d="M119.198,2.105c0,-0.433 -0.356,-0.79 -0.79,-0.79l-3.974,0c-0.433,0 -0.79,0.357 -0.79,0.79l0,2.024l5.554,0l0,-2.024Z" style="fill:#004272;fill-rule:nonzero;"/><path d="M120.242,5.318c0,-0.434 -0.357,-0.79 -0.79,-0.79l-6.062,0c-0.433,0 -0.79,0.356 -0.79,0.79l0,1.202l7.642,0l0,-1.202Z" style="fill:#004272;fill-rule:nonzero;"/><path d="M112.6,12.949c0,0.433 0.357,0.789 0.79,0.789l6.059,0c0.433,0 0.789,-0.356 0.789,-0.789l0,-1.228l-7.638,0l0,1.228Z" style="fill:#004272;fill-rule:nonzero;"/><path d="M112.6,6.848l0,4.549l7.642,0l0,-4.549l-7.642,0ZM117.735,9.493l-0.959,0l0,0.959c0,0.204 -0.168,0.372 -0.372,0.372c-0.204,0 -0.372,-0.168 -0.372,-0.372l0,-0.959l-0.942,0c-0.204,0 -0.372,-0.168 -0.372,-0.372c0,-0.204 0.168,-0.372 0.372,-0.372l0.959,0l0,-0.959c0,-0.204 0.168,-0.372 0.372,-0.372c0.204,0 0.372,0.168 0.372,0.372l0,0.959l0.942,0c0.204,0 0.372,0.168 0.372,0.372c0,0.204 -0.168,0.372 -0.372,0.372l0,0Z" style="fill:#e30613;fill-rule:nonzero;"/><path d="M-0.005,15.808l5.603,0c0.043,1.298 0.424,2.273 1.143,2.924c0.719,0.651 1.777,0.978 3.174,0.98c1.175,0 2.091,-0.195 2.747,-0.585c0.608,-0.323 0.984,-0.962 0.973,-1.651c0.006,-0.336 -0.074,-0.669 -0.233,-0.966c-0.146,-0.275 -0.372,-0.499 -0.649,-0.642c-1.006,-0.431 -2.043,-0.785 -3.103,-1.058c-1.645,-0.484 -3.035,-0.954 -4.168,-1.41c-1.459,-0.51 -2.757,-1.397 -3.762,-2.571c-0.846,-1.056 -1.297,-2.375 -1.273,-3.727c-0.072,-2.02 0.841,-3.953 2.447,-5.18c1.631,-1.281 3.841,-1.922 6.629,-1.922c2.737,0 4.908,0.674 6.513,2.021c1.606,1.347 2.409,3.169 2.409,5.465l-5.466,0c-0.125,-1.06 -0.497,-1.842 -1.118,-2.345c-0.62,-0.503 -1.519,-0.754 -2.694,-0.754c-0.802,-0.036 -1.597,0.165 -2.285,0.578c-0.535,0.298 -0.872,0.861 -0.882,1.474c0,1.009 1.395,1.961 4.183,2.856l1.156,0.371l0.233,0.077c2.882,0.941 4.683,1.696 5.402,2.268c0.709,0.57 1.279,1.293 1.668,2.115c0.389,0.845 0.584,1.765 0.571,2.694c0,2.264 -0.867,4.027 -2.602,5.29c-1.735,1.262 -4.166,1.892 -7.292,1.89c-2.953,0 -5.202,-0.677 -6.746,-2.031c-1.545,-1.354 -2.404,-3.408 -2.578,-6.161Z" style="fill:#004272;fill-rule:nonzero;"/><path d="M28.601,0.621l6.347,0l8.029,22.737l-6.245,0l-1.389,-4.168l-7.592,0l-1.298,4.168l-6.044,0l8.192,-22.737ZM29.14,14.483l4.972,0l-2.532,-7.843l-2.44,7.843Z" style="fill:#004272;fill-rule:nonzero;"/><path d="M45.223,23.358l0,-22.737l8.012,0l2.994,11.069c0.268,0.978 0.51,1.927 0.726,2.849c0.217,0.921 0.407,1.82 0.572,2.694c0.195,-0.926 0.416,-1.896 0.663,-2.909c0.247,-1.013 0.53,-2.102 0.85,-3.266l2.821,-10.434l7.994,0l0,22.738l-5.304,0l0,-10.085c0,-0.706 0.018,-1.701 0.053,-2.987c0.035,-1.286 0.089,-2.766 0.162,-4.44l-4.369,17.508l-5.783,0l-4.267,-17.504c0.073,2.017 0.129,3.83 0.169,5.441c0.04,1.61 0.06,2.868 0.06,3.773l0,8.29l-5.353,0Z" style="fill:#004272;fill-rule:nonzero;"/><path d="M74.361,23.358l0,-22.737l8.012,0l2.994,11.069c0.268,0.978 0.51,1.927 0.726,2.849c0.217,0.921 0.407,1.82 0.572,2.694c0.195,-0.926 0.416,-1.896 0.662,-2.909c0.247,-1.013 0.531,-2.102 0.85,-3.266l2.821,-10.434l7.998,0l0,22.738l-5.304,0l0,-10.085c0,-0.706 0.018,-1.701 0.053,-2.987c0.036,-1.286 0.09,-2.766 0.163,-4.44l-4.384,17.508l-5.758,0l-4.277,-17.504c0.072,2.017 0.129,3.83 0.169,5.441c0.04,1.61 0.06,2.868 0.06,3.773l0,8.29l-5.357,0Z" style="fill:#004272;fill-rule:nonzero;"/><path d="M123.729,15.339c-0.521,-0.373 -1.181,0.022 -1.657,0.293c-0.683,0.465 -1.311,1.005 -1.872,1.612c-1.153,0.909 -2.705,0.892 -4.066,1.266c-1.18,0.28 -2.425,-0.035 -3.329,-0.843c1.03,-0.344 2.13,-0.424 3.198,-0.233c0.84,0.056 1.809,-0.353 2.116,-1.171c0.219,-0.705 -0.508,-1.357 -1.164,-1.361c-1.738,-0.208 -3.547,0.134 -5.236,-0.465c-1.82,-0.522 -3.812,-1.125 -5.663,-0.42c-2.345,1.167 -3.802,3.043 -3.625,3.251l-0.064,6.217c0.353,0.296 1.922,-1.477 2.296,-1.837c1.217,-1.271 3.132,-1.606 4.707,-0.822c1.644,0.533 4.158,1.083 4.803,0.896c1.904,-0.61 4.669,-0.666 6.013,-1.71c1.343,-1.044 4.848,-3.431 3.526,-4.676l0.017,0.003Z" style="fill:#004272;fill-rule:nonzero;"/></svg>